<?xml version="1.0" standalone="no"?>
<!DOCTYPE svg PUBLIC "-//W3C//DTD SVG 20010904//EN"
 "http://www.w3.org/TR/2001/REC-SVG-20010904/DTD/svg10.dtd">
<svg version="1.0" xmlns="http://www.w3.org/2000/svg"
 width="1280.000000pt" height="1280.000000pt" viewBox="0 0 1280.000000 1280.000000"
 preserveAspectRatio="xMidYMid meet">
<metadata>
Created by potrace 1.15, written by Peter Selinger 2001-2017
</metadata>
<g transform="translate(0.000000,1280.000000) scale(0.100000,-0.100000)"
fill="#FFBD99" stroke="none">
<path d="M3255 12550 c-2845 -5 -2870 -5 -2909 -25 -51 -26 -74 -58 -85 -120
-13 -70 -26 -11845 -13 -11951 13 -110 34 -151 91 -178 l46 -21 6015 0 c5995
0 6015 0 6054 20 52 26 74 58 86 125 7 37 9 2047 8 6040 l-3 5985 -24 42 c-30
52 -71 73 -165 84 -73 8 -4049 8 -9101 -1z"/>
</g>
</svg>
