<?xml version="1.0" encoding="utf-8"?>
<!-- Generator: Adobe Illustrator 27.0.0, SVG Export Plug-In . SVG Version: 6.00 Build 0)  -->
<svg version="1.1" id="Capa_1" xmlns="http://www.w3.org/2000/svg" xmlns:xlink="http://www.w3.org/1999/xlink" x="0px" y="0px"
	 viewBox="0 0 800 800" style="enable-background:new 0 0 800 800;" xml:space="preserve">
<style type="text/css">
	.st0{fill:#000;}
</style>
<g>
	<path class="st0" d="M400,0C179.1,0,0,179.1,0,400s179.1,400,400,400s400-179.1,400-400S620.9,0,400,0z M644,644
		c-31.7,31.7-68.6,56.6-109.7,74c-42.5,18-87.7,27.1-134.3,27.1s-91.8-9.1-134.3-27.1c-41.1-17.4-78-42.3-109.7-74
		c-31.7-31.7-56.6-68.6-74-109.7C64.1,491.8,55,446.6,55,400s9.1-91.8,27.1-134.3c17.4-41.1,42.3-78,74-109.7
		c31.7-31.7,68.6-56.6,109.7-74C308.2,64.1,353.4,55,400,55s91.8,9.1,134.3,27.1c41.1,17.4,78,42.3,109.7,74
		c31.7,31.7,56.6,68.6,74,109.7c18,42.5,27.1,87.7,27.1,134.3s-9.1,91.8-27.1,134.3C700.5,575.3,675.7,612.2,644,644z"/>
	<path class="st0" d="M534.7,265.3c-10.7-10.7-28.2-10.7-38.9,0L400,361.1l-95.8-95.8c-10.7-10.7-28.2-10.7-38.9,0
		c-10.7,10.7-10.7,28.2,0,38.9l95.8,95.8l-95.8,95.8c-10.7,10.7-10.7,28.2,0,38.9c10.7,10.7,28.2,10.7,38.9,0l95.8-95.8l95.8,95.8
		c10.7,10.7,28.2,10.7,38.9,0c10.7-10.7,10.7-28.2,0-38.9L438.9,400l95.8-95.8C545.4,293.4,545.4,276,534.7,265.3z"/>
</g>
</svg>
