<?xml version="1.0" encoding="utf-8"?>
<!-- Generator: Adobe Illustrator 27.0.0, SVG Export Plug-In . SVG Version: 6.00 Build 0)  -->
<svg version="1.1" xmlns="http://www.w3.org/2000/svg" xmlns:xlink="http://www.w3.org/1999/xlink" x="0px" y="0px"
	 viewBox="0 0 128 128" style="enable-background:new 0 0 128 128;" xml:space="preserve">
<style type="text/css">
	.st0{display:none;}
	.st1{display:inline;fill:none;stroke:#000000;stroke-width:0.4;stroke-linecap:round;stroke-linejoin:round;stroke-miterlimit:10;}
	.st2{display:inline;}
</style>
<g id="Tracé_Logo" class="st0">
	<path class="st1" d="M105.1,71.2h-2c5.7-8.2,6.1-28.9,6.1-28.9h1c0,0,0.5,20.7,6.1,28.9h-2.3c0,0-2.6-5-3.4-10.3l-1.9,0
		c0,0-0.6,3.1-1,4h2.3l0.5,1.8c-3.1-0.2-3.9,1.3-3.9,1.3"/>
	<polyline class="st1" points="105.1,71.2 105.1,62.6 100.1,57.5 95,62.6 95,71.2 100.9,71.2 100.9,67.1 103.3,67.1 	"/>
</g>
<g id="Calque_2" class="st0">
	<path class="st2" d="M57.8,63.8c-9.6-13.9-10.5-49.1-10.5-49.4c0-0.2-0.2-0.3-0.3-0.3h-1.7c-0.2,0-0.3,0.1-0.3,0.3
		c0,0.3-0.6,25-6.4,41.2v-6.4c0-0.1,0-0.2-0.1-0.2l-8.6-8.6c-0.1-0.1-0.4-0.1-0.5,0L20.6,49c-0.1,0.1-0.1,0.2-0.1,0.2V64
		c0,0.2,0.2,0.3,0.3,0.3h10c0.2,0,0.3-0.2,0.3-0.3v-6.8h3.9c0.2,0,0.3-0.2,0.3-0.3s-0.2-0.3-0.3-0.3h-4.2c-0.2,0-0.3,0.2-0.3,0.3
		v6.8h-9.4V49.3l8.3-8.3l8.3,8.3v8c-1,2.4-2.1,4.6-3.3,6.5c-0.1,0.1-0.1,0.2,0,0.4c0.1,0.1,0.2,0.2,0.3,0.2h3.4
		c0.2,0,0.3-0.2,0.3-0.3v-6.5c6.1-15.3,7-39.6,7.1-42.8h1.1C46.7,18.3,48,50,56.8,63.7h-3c-0.7-1.3-4.5-9.2-5.7-17.4
		c0-0.2-0.2-0.3-0.3-0.3h-3.2c-0.2,0-0.3,0.1-0.3,0.3c0,0,0,0.1,0,0.1c-0.1,0.4-1.1,5.3-1.7,6.8c0,0.1,0,0.2,0,0.3
		c0.1,0.1,0.2,0.2,0.3,0.2h3.7l0.6,2.4c-0.2,0-0.5,0-0.7,0c-4.6,0-5.8,2.3-5.8,2.4c-0.1,0.2,0,0.4,0.2,0.5c0.2,0.1,0.4,0,0.5-0.2
		c0,0,1.2-2.3,6.3-2c0.1,0,0.2,0,0.3-0.1c0.1-0.1,0.1-0.2,0.1-0.3l-0.8-3.1c0-0.2-0.2-0.3-0.3-0.3h-3.5c0.4-1.3,1.3-4.8,1.5-6.2h2.7
		c1.3,9,5.8,17.5,5.8,17.6c0.1,0.1,0.2,0.2,0.3,0.2h3.9c0.1,0,0.2-0.1,0.3-0.2C57.9,64.1,57.8,63.9,57.8,63.8z M37.8,63.7h-2.4
		c0.9-1.4,1.7-2.9,2.4-4.5V63.7z"/>
</g>
<g id="Calque_3">
	<path d="M96.4,86.7C79.8,62.5,78.2,1.2,78.2,0.6c0-0.3-0.3-0.6-0.6-0.6h-3C74.3,0,74,0.3,74,0.6c0,0.5-1.1,43.5-11.2,71.7V61.2
		c0-0.2-0.1-0.3-0.2-0.4L47.6,45.7c-0.2-0.2-0.6-0.2-0.8,0L31.7,60.8c-0.1,0.1-0.2,0.3-0.2,0.4V87c0,0.3,0.3,0.6,0.6,0.6h17.5
		c0.3,0,0.6-0.3,0.6-0.6V75.2h6.8c0.3,0,0.6-0.3,0.6-0.6c0-0.3-0.3-0.6-0.6-0.6h-7.4c-0.3,0-0.6,0.3-0.6,0.6v11.8H32.7V61.5L47.1,47
		l14.5,14.5v14c-1.7,4.2-3.6,8.1-5.8,11.2c-0.1,0.2-0.1,0.4,0,0.6c0.1,0.2,0.3,0.3,0.5,0.3h5.9c0.3,0,0.6-0.3,0.6-0.6V75.6
		C73.3,49.1,75,6.7,75.2,1.2H77c0.2,6.3,2.4,61.5,17.8,85.2h-5.3c-1.1-2.2-7.9-16-9.9-30.4c0-0.3-0.3-0.5-0.6-0.5h-5.6
		c-0.3,0-0.5,0.2-0.6,0.4c0,0.1,0,0.1,0,0.2c-0.1,0.8-1.9,9.3-2.9,11.8c-0.1,0.2-0.1,0.4,0.1,0.6c0.1,0.2,0.3,0.3,0.5,0.3H77l1,4.2
		c-0.4,0-0.8,0-1.2,0c-8,0-10,4-10.1,4.2c-0.1,0.3,0,0.6,0.3,0.8c0.3,0.1,0.7,0,0.8-0.3c0,0,2.2-4.1,10.9-3.4c0.2,0,0.4-0.1,0.5-0.2
		c0.1-0.1,0.2-0.3,0.1-0.5L78.1,68c-0.1-0.3-0.3-0.5-0.6-0.5h-6.2c0.6-2.2,2.3-8.3,2.6-10.8h4.6c2.3,15.7,10,30.4,10.1,30.6
		c0.1,0.2,0.3,0.3,0.5,0.3h6.7c0.2,0,0.4-0.1,0.5-0.3C96.6,87.1,96.5,86.8,96.4,86.7z M61.6,86.4h-4.2c1.5-2.4,2.9-5,4.2-7.9V86.4z"
		/>
	<g>
		<path d="M41.5,91.7v10.7h-0.7v-8.6l-4.3,6h0l-4.3-6v8.5h-0.7V91.7h0l5,7.1L41.5,91.7L41.5,91.7z"/>
		<path d="M52.1,99h-4.6l-1.4,3.5h-0.7l4.4-10.9h0.1l4.4,10.9h-0.8L52.1,99z M51.8,98.3l-2-5.1l-2.1,5.1H51.8z"/>
		<path d="M58.9,91.8v10.4h-0.7V91.8H58.9z"/>
		<path d="M67.5,92.5c-0.4-0.1-0.9-0.2-1.3-0.2c-0.7,0-1.2,0.2-1.6,0.5c-0.4,0.3-0.6,0.8-0.6,1.3c0,0.4,0.1,0.7,0.3,0.9
			c0.2,0.3,0.5,0.5,0.8,0.6c0.3,0.2,0.8,0.4,1.3,0.6c0.6,0.2,1.1,0.4,1.5,0.7c0.4,0.2,0.7,0.5,1,0.9c0.3,0.4,0.4,0.9,0.4,1.5
			c0,0.6-0.1,1.1-0.4,1.5c-0.3,0.4-0.7,0.8-1.2,1c-0.5,0.2-1.1,0.4-1.7,0.4c-1.1,0-2.2-0.4-3.3-1.1l0.3-0.6c0.4,0.3,0.8,0.5,1.3,0.7
			c0.5,0.2,1,0.3,1.5,0.3c0.4,0,0.9-0.1,1.3-0.3c0.4-0.2,0.7-0.4,1-0.8c0.2-0.3,0.4-0.8,0.4-1.3c0-0.5-0.1-0.8-0.3-1.2
			c-0.2-0.3-0.5-0.6-0.9-0.8c-0.3-0.2-0.8-0.4-1.3-0.6c-0.6-0.2-1.1-0.4-1.5-0.6c-0.4-0.2-0.7-0.5-1-0.8c-0.3-0.3-0.4-0.7-0.4-1.3
			c0-0.5,0.1-0.9,0.4-1.3c0.2-0.4,0.6-0.7,1-0.9c0.4-0.2,0.9-0.3,1.5-0.3c0.5,0,1,0.1,1.5,0.2c0.5,0.1,1,0.3,1.3,0.5l-0.3,0.6
			C68.3,92.8,67.9,92.6,67.5,92.5z"/>
		<path d="M73.9,94.4c0.5-0.8,1.1-1.5,1.9-2c0.8-0.5,1.7-0.7,2.7-0.7c1,0,1.9,0.2,2.7,0.7c0.8,0.5,1.5,1.1,2,2
			c0.5,0.8,0.7,1.7,0.7,2.7c0,1-0.2,1.9-0.7,2.7c-0.5,0.8-1.1,1.5-2,1.9c-0.8,0.5-1.7,0.7-2.7,0.7c-1,0-1.9-0.2-2.7-0.7
			c-0.8-0.5-1.5-1.1-1.9-1.9c-0.5-0.8-0.7-1.7-0.7-2.7C73.2,96.1,73.4,95.2,73.9,94.4z M74.5,99.4c0.4,0.7,1,1.3,1.7,1.7
			s1.5,0.6,2.3,0.6c0.8,0,1.6-0.2,2.3-0.6s1.3-1,1.7-1.7c0.4-0.7,0.6-1.5,0.6-2.3c0-0.8-0.2-1.6-0.6-2.3c-0.4-0.7-1-1.3-1.7-1.7
			c-0.7-0.4-1.5-0.6-2.3-0.6c-0.8,0-1.6,0.2-2.3,0.6c-0.7,0.4-1.3,1-1.7,1.7s-0.6,1.5-0.6,2.3C73.9,97.9,74.1,98.7,74.5,99.4z"/>
		<path d="M96.5,91.8v10.7h0l-8.1-9.1l0,8.8h-0.7V91.6h0l8,9.1l0-8.9H96.5z"/>
	</g>
	<g>
		<path d="M36,106.6c0.6,0.5,0.8,1.2,0.8,2.1c0,0.5-0.1,1-0.3,1.5c-0.2,0.4-0.6,0.8-1.1,1.1c-0.5,0.3-1.1,0.4-1.8,0.4h-1.6v4.2h-0.7
			v-10h2.3C34.7,105.9,35.5,106.1,36,106.6z M35.2,110.7c0.4-0.2,0.6-0.5,0.8-0.9c0.2-0.4,0.2-0.7,0.2-1c0-0.6-0.2-1.2-0.6-1.6
			c-0.4-0.4-1-0.6-1.7-0.6h-1.7v4.5h1.6C34.3,111,34.8,110.9,35.2,110.7z"/>
		<path d="M45.2,115.9l-2.6-4.3c-0.2,0-0.4,0.1-0.7,0.1h-1.6v4.2h-0.7v-10h2.3c0.5,0,1,0.1,1.5,0.3c0.5,0.2,0.9,0.5,1.2,0.9
			c0.3,0.4,0.5,0.9,0.5,1.6c0,0.6-0.1,1.2-0.4,1.7c-0.3,0.5-0.7,0.9-1.3,1.1l2.7,4.4H45.2z M43.8,110.4c0.4-0.4,0.6-1,0.6-1.6
			c0-0.4-0.1-0.8-0.3-1.1c-0.2-0.3-0.5-0.6-0.8-0.8c-0.4-0.2-0.8-0.3-1.2-0.3h-1.7v4.5h1.5C42.7,111,43.4,110.8,43.8,110.4z"/>
		<path d="M55.1,105.9v0.7h-5.5v4h4.9v0.7h-4.9v4h5.7v0.7h-6.4v-10H55.1z"/>
		<path d="M62.1,106.6c-0.4-0.1-0.8-0.2-1.2-0.2c-0.7,0-1.2,0.2-1.6,0.5c-0.4,0.3-0.6,0.7-0.6,1.2c0,0.4,0.1,0.7,0.3,0.9
			c0.2,0.2,0.5,0.5,0.8,0.6c0.3,0.2,0.7,0.3,1.3,0.5c0.6,0.2,1,0.4,1.4,0.6c0.4,0.2,0.7,0.5,0.9,0.9c0.3,0.4,0.4,0.8,0.4,1.4
			c0,0.6-0.1,1-0.4,1.5c-0.3,0.4-0.6,0.8-1.1,1c-0.5,0.2-1,0.4-1.6,0.4c-1.1,0-2.1-0.3-3.2-1l0.3-0.6c0.3,0.3,0.8,0.5,1.3,0.7
			s1,0.3,1.5,0.3c0.4,0,0.8-0.1,1.2-0.2c0.4-0.2,0.7-0.4,0.9-0.7c0.2-0.3,0.4-0.7,0.4-1.2c0-0.4-0.1-0.8-0.3-1.1
			c-0.2-0.3-0.5-0.5-0.8-0.7c-0.3-0.2-0.8-0.4-1.3-0.6c-0.6-0.2-1-0.4-1.4-0.6c-0.4-0.2-0.7-0.4-0.9-0.8c-0.2-0.3-0.4-0.7-0.4-1.2
			c0-0.5,0.1-0.9,0.4-1.2c0.2-0.4,0.6-0.6,1-0.8c0.4-0.2,0.9-0.3,1.4-0.3c0.4,0,0.9,0.1,1.4,0.2s0.9,0.3,1.3,0.5l-0.3,0.5
			C62.9,106.9,62.5,106.7,62.1,106.6z"/>
		<path d="M72.4,105.9v0.7h-2.9v9.3h-0.7v-9.3h-2.9v-0.7H72.4z"/>
		<path d="M75.8,105.9v10h-0.7v-10H75.8z"/>
		<path d="M85.5,115.8c-0.6,0.2-1.1,0.2-1.6,0.2c-1,0-1.9-0.2-2.7-0.7c-0.8-0.4-1.4-1-1.8-1.8c-0.4-0.8-0.6-1.6-0.6-2.5
			c0-1,0.2-1.9,0.7-2.7c0.5-0.8,1.1-1.4,1.9-1.9c0.8-0.4,1.6-0.7,2.6-0.7c1,0,1.9,0.2,2.7,0.7l-0.3,0.6c-0.3-0.2-0.7-0.4-1.2-0.5
			c-0.4-0.1-0.9-0.2-1.3-0.2c-0.8,0-1.6,0.2-2.3,0.6c-0.7,0.4-1.2,0.9-1.6,1.6c-0.4,0.7-0.6,1.4-0.6,2.3c0,0.8,0.2,1.6,0.6,2.2
			c0.4,0.7,0.9,1.2,1.6,1.6c0.7,0.4,1.4,0.6,2.3,0.6c0.4,0,0.8,0,1.3-0.1c0.4-0.1,0.8-0.2,1.1-0.4V112H84v-0.7h2.9v3.8
			C86.6,115.4,86.1,115.6,85.5,115.8z"/>
		<path d="M96.3,105.9v0.7h-5.5v4h4.9v0.7h-4.9v4h5.7v0.7h-6.4v-10H96.3z"/>
	</g>
	<path d="M34.6,124.3c0.4-0.1,0.8-0.3,1-0.6c0.2-0.3,0.4-0.7,0.4-1.1c0-0.5-0.1-0.8-0.4-1.1c-0.2-0.3-0.6-0.5-1-0.6
		c-0.2,0-0.7-0.1-1.7-0.1h-1.3v7.3h0.3v-3.6h0.8C33.6,124.4,34.2,124.4,34.6,124.3z M31.9,121h1.6c0.6,0,1,0,1.2,0.2
		c0.3,0.1,0.5,0.3,0.7,0.5c0.2,0.3,0.2,0.5,0.2,0.8c0,0.3-0.1,0.6-0.2,0.9c-0.2,0.3-0.4,0.4-0.7,0.6c-0.3,0.1-0.7,0.2-1.2,0.2
		l-1.5,0V121z"/>
	<path d="M52.4,125.5l1.2,2.5h0.3l-3.3-7.2l-3.4,7.2h0.3l1.2-2.5H52.4z M50.6,121.6l1.7,3.6h-3.4L50.6,121.6z"/>
	<path d="M66.4,124.5l2.7,3.5h0.4l-2.8-3.6h0.5c0.6,0,1.1-0.1,1.4-0.2c0.3-0.1,0.6-0.4,0.7-0.6c0.2-0.3,0.3-0.6,0.3-1
		c0-0.4-0.1-0.8-0.4-1.1c-0.3-0.3-0.6-0.5-1-0.6c-0.3-0.1-0.9-0.1-1.7-0.1h-1.3v7.3h0.3v-3.6L66.4,124.5L66.4,124.5z M65.6,121h1.6
		c0.6,0,1,0,1.2,0.2c0.3,0.1,0.5,0.3,0.7,0.5c0.2,0.3,0.2,0.5,0.2,0.8c0,0.3-0.1,0.6-0.2,0.9c-0.2,0.3-0.4,0.4-0.7,0.6
		c-0.3,0.1-0.7,0.2-1.2,0.2l-1.6,0V121z"/>
	<rect x="80.9" y="120.7" width="0.3" height="7.3"/>
	<path d="M93.4,127.7c0.3,0.2,0.7,0.3,1.2,0.3c0.6,0,1-0.2,1.4-0.6c0.4-0.4,0.6-0.8,0.6-1.3c0-0.3-0.1-0.7-0.3-1
		c-0.2-0.4-0.7-0.8-1.3-1.3c-0.6-0.4-0.9-0.7-1-0.8c-0.2-0.2-0.4-0.4-0.4-0.6c-0.1-0.2-0.1-0.4-0.1-0.6c0-0.3,0.1-0.6,0.4-0.9
		c0.2-0.2,0.5-0.3,0.9-0.3c0.3,0,0.5,0.1,0.8,0.2c0.2,0.1,0.4,0.3,0.7,0.6l0.3-0.2c-0.3-0.4-0.5-0.6-0.8-0.8c-0.5-0.3-1.2-0.3-1.8,0
		c-0.3,0.1-0.4,0.3-0.6,0.6c-0.1,0.2-0.2,0.5-0.2,0.8c0,0.4,0.1,0.7,0.4,1c0.1,0.1,0.4,0.4,1.2,1c0.7,0.5,1.1,0.9,1.4,1.3
		c0.2,0.3,0.3,0.6,0.3,0.9c0,0.3-0.1,0.5-0.2,0.8c-0.1,0.2-0.3,0.4-0.6,0.6c-0.3,0.1-0.5,0.2-0.8,0.2c-0.6,0-1.2-0.4-1.7-1.2
		l-0.3,0.2C92.8,127.1,93.1,127.5,93.4,127.7z"/>
</g>
</svg>
