<?xml version="1.0" standalone="no"?>
<!DOCTYPE svg PUBLIC "-//W3C//DTD SVG 20010904//EN"
 "http://www.w3.org/TR/2001/REC-SVG-20010904/DTD/svg10.dtd">
<svg version="1.0" xmlns="http://www.w3.org/2000/svg"
 width="1280.000000pt" height="1280.000000pt" viewBox="0 0 1280.000000 1280.000000"
 preserveAspectRatio="xMidYMid meet">
<metadata>
Created by potrace 1.15, written by Peter Selinger 2001-2017
</metadata>
<g transform="translate(0.000000,1280.000000) scale(0.100000,-0.100000)"
fill="#000000" stroke="none">
<path d="M6095 12794 c-27 -2 -115 -8 -195 -14 -1261 -93 -2504 -584 -3500
-1384 -454 -365 -875 -810 -1215 -1287 -1290 -1808 -1545 -4169 -673 -6221 75
-176 232 -491 328 -658 755 -1314 1927 -2308 3343 -2834 923 -343 1937 -466
2927 -356 1302 146 2508 677 3505 1544 248 216 581 565 801 842 1539 1932
1819 4616 713 6826 -783 1566 -2159 2738 -3824 3259 -428 134 -858 219 -1340
265 -150 14 -756 27 -870 18z m790 -2625 c47 -22 108 -83 128 -127 9 -21 13
-385 17 -1517 l5 -1490 1490 -5 c1132 -4 1496 -8 1517 -17 44 -20 105 -81 127
-128 20 -43 21 -59 21 -476 0 -302 -4 -443 -12 -471 -15 -49 -76 -120 -125
-144 -37 -18 -96 -19 -1528 -24 l-1490 -5 -5 -1490 c-4 -1132 -8 -1496 -17
-1517 -20 -44 -81 -105 -128 -127 -43 -20 -59 -21 -485 -21 -426 0 -442 1
-485 21 -47 22 -108 83 -128 127 -9 21 -13 385 -17 1517 l-5 1490 -1490 5
c-1132 4 -1496 8 -1517 17 -44 20 -105 81 -127 128 -20 43 -21 59 -21 485 0
356 3 447 14 474 19 46 79 110 124 132 35 18 102 19 1527 24 l1490 5 5 1490
c5 1405 6 1492 23 1526 23 46 72 93 122 118 38 19 62 20 483 21 429 0 444 -1
487 -21z"/>
</g>
</svg>
